HIERARCHY
ROOT Hips
{
	OFFSET 0.000000 35.082581 0.000000
	CHANNELS 6 Xposition Yposition Zposition Xrotation Yrotation Zrotation 
	JOINT Spine
	{
		OFFSET 0.000000 6.876099 0.125700
		CHANNELS 3 Xrotation Yrotation Zrotation
		JOINT Spine1
		{
			OFFSET 0.000000 5.730043 0.104720
			CHANNELS 3 Xrotation Yrotation Zrotation
			JOINT Spine1_split
			{
				OFFSET 0.000000 5.730043 0.104720
				CHANNELS 3 Xrotation Yrotation Zrotation
				JOINT Spine2
				{
					OFFSET 0.000000 5.730043 0.104720
					CHANNELS 3 Xrotation Yrotation Zrotation
					JOINT Neck
					{
						OFFSET 0.000000 10.314075 0.188496
						CHANNELS 3 Xrotation Yrotation Zrotation
						JOINT Head
						{
							OFFSET 0.000000 7.643700 -2.377400
							CHANNELS 3 Xrotation Yrotation Zrotation
							JOINT HeadTop_End
							{
								OFFSET 0.000000 43.788605 -13.619600
								CHANNELS 3 Xrotation Yrotation Zrotation
								End Site
								{
									OFFSET 0.000000 0.000000 0.000000
								}
							}
						}
					}
					JOINT LeftShoulder
					{
						OFFSET 2.196100 4.412489 0.087492
						CHANNELS 3 Xrotation Yrotation Zrotation
						JOINT LeftShoulder_split
						{
							OFFSET 2.196100 4.412489 0.087492
							CHANNELS 3 Xrotation Yrotation Zrotation
							JOINT LeftArm
							{
								OFFSET 8.771219 -2.981674 -0.026999
								CHANNELS 3 Xrotation Yrotation Zrotation
								JOINT LeftForeArm
								{
									OFFSET 8.512804 0.000000 -0.000000
									CHANNELS 3 Xrotation Yrotation Zrotation
									JOINT LeftHand
									{
										OFFSET 18.484802 0.000000 -0.000000
										CHANNELS 3 Xrotation Yrotation Zrotation
										JOINT LeftHandThumb1
										{
											OFFSET 2.499420 -1.158070 2.653252
											CHANNELS 3 Xrotation Yrotation Zrotation
											JOINT LeftHandThumb2
											{
												OFFSET 2.370079 -1.368366 1.368366
												CHANNELS 3 Xrotation Yrotation Zrotation
												JOINT LeftHandThumb3
												{
													OFFSET 2.676727 -1.545410 1.545409
													CHANNELS 3 Xrotation Yrotation Zrotation
													JOINT LeftHandThumb4
													{
														OFFSET 1.692226 -0.977005 0.977007
														CHANNELS 3 Xrotation Yrotation Zrotation
														End Site
														{
															OFFSET 0.000000 0.000000 0.000000
														}
													}
												}
											}
										}
										JOINT LeftHandIndex1
										{
											OFFSET 7.924831 -0.457527 2.345128
											CHANNELS 3 Xrotation Yrotation Zrotation
											JOINT LeftHandIndex2
											{
												OFFSET 3.643303 0.000000 0.000000
												CHANNELS 3 Xrotation Yrotation Zrotation
												JOINT LeftHandIndex3
												{
													OFFSET 3.810799 0.000000 0.000000
													CHANNELS 3 Xrotation Yrotation Zrotation
													JOINT LeftHandIndex4
													{
														OFFSET 2.403702 0.000000 0.000000
														CHANNELS 3 Xrotation Yrotation Zrotation
														End Site
														{
															OFFSET 0.000000 0.000000 0.000000
														}
													}
												}
											}
										}
										JOINT LeftHandMiddle1
										{
											OFFSET 8.563995 0.000000 -0.000000
											CHANNELS 3 Xrotation Yrotation Zrotation
											JOINT LeftHandMiddle2
											{
												OFFSET 3.861618 0.000000 0.000000
												CHANNELS 3 Xrotation Yrotation Zrotation
												JOINT LeftHandMiddle3
												{
													OFFSET 3.701603 0.000000 0.000000
													CHANNELS 3 Xrotation Yrotation Zrotation
													JOINT LeftHandMiddle4
													{
														OFFSET 2.322544 0.000000 0.000000
														CHANNELS 3 Xrotation Yrotation Zrotation
														End Site
														{
															OFFSET 0.000000 0.000000 0.000000
														}
													}
												}
											}
										}
										JOINT LeftHandRing1
										{
											OFFSET 8.426460 -0.424637 -3.286992
											CHANNELS 3 Xrotation Yrotation Zrotation
											JOINT LeftHandRing2
											{
												OFFSET 3.126408 0.000000 0.000000
												CHANNELS 3 Xrotation Yrotation Zrotation
												JOINT LeftHandRing3
												{
													OFFSET 3.085026 0.000000 0.000000
													CHANNELS 3 Xrotation Yrotation Zrotation
													JOINT LeftHandRing4
													{
														OFFSET 1.644005 0.000000 0.000000
														CHANNELS 3 Xrotation Yrotation Zrotation
														End Site
														{
															OFFSET 0.000000 0.000000 0.000000
														}
													}
												}
											}
										}
									}
								}
							}
						}
					}
					JOINT RightShoulder
					{
						OFFSET -2.196100 4.412496 0.070690
						CHANNELS 3 Xrotation Yrotation Zrotation
						JOINT RightShoulder_split
						{
							OFFSET -2.196100 4.412496 0.070690
							CHANNELS 3 Xrotation Yrotation Zrotation
							JOINT RightArm
							{
								OFFSET -8.771282 -2.981682 -0.094208
								CHANNELS 3 Xrotation Yrotation Zrotation
								JOINT RightForeArm
								{
									OFFSET -8.494598 0.000000 0.000000
									CHANNELS 3 Xrotation Yrotation Zrotation
									JOINT RightHand
									{
										OFFSET -18.483803 0.000000 0.000001
										CHANNELS 3 Xrotation Yrotation Zrotation
										JOINT RightHandThumb1
										{
											OFFSET -2.527351 -1.008072 2.575253
											CHANNELS 3 Xrotation Yrotation Zrotation
											JOINT RightHandThumb2
											{
												OFFSET -2.321518 -1.340328 1.340329
												CHANNELS 3 Xrotation Yrotation Zrotation
												JOINT RightHandThumb3
												{
													OFFSET -2.657753 -1.534454 1.534455
													CHANNELS 3 Xrotation Yrotation Zrotation
													JOINT RightHandThumb4
													{
														OFFSET -1.807510 -1.043568 1.043567
														CHANNELS 3 Xrotation Yrotation Zrotation
														End Site
														{
															OFFSET 0.000000 0.000000 0.000000
														}
													}
												}
											}
										}
										JOINT RightHandIndex1
										{
											OFFSET -8.811420 0.015533 2.887987
											CHANNELS 3 Xrotation Yrotation Zrotation
											JOINT RightHandIndex2
											{
												OFFSET -3.537502 0.000000 0.000000
												CHANNELS 3 Xrotation Yrotation Zrotation
												JOINT RightHandIndex3
												{
													OFFSET -3.356201 0.000000 0.000000
													CHANNELS 3 Xrotation Yrotation Zrotation
													JOINT RightHandIndex4
													{
														OFFSET -1.933098 0.000000 0.000000
														CHANNELS 3 Xrotation Yrotation Zrotation
														End Site
														{
															OFFSET 0.000000 0.000000 0.000000
														}
													}
												}
											}
										}
										JOINT RightHandMiddle1
										{
											OFFSET -8.178135 0.000000 0.000000
											CHANNELS 3 Xrotation Yrotation Zrotation
											JOINT RightHandMiddle2
											{
												OFFSET -3.901302 0.000000 0.000000
												CHANNELS 3 Xrotation Yrotation Zrotation
												JOINT RightHandMiddle3
												{
													OFFSET -3.909599 0.000000 0.000000
													CHANNELS 3 Xrotation Yrotation Zrotation
													JOINT RightHandMiddle4
													{
														OFFSET -2.376003 0.000000 0.000000
														CHANNELS 3 Xrotation Yrotation Zrotation
														End Site
														{
															OFFSET 0.000000 0.000000 0.000000
														}
													}
												}
											}
										}
										JOINT RightHandRing1
										{
											OFFSET -7.559013 0.014137 -2.865403
											CHANNELS 3 Xrotation Yrotation Zrotation
											JOINT RightHandRing2
											{
												OFFSET -3.449306 0.000000 0.000000
												CHANNELS 3 Xrotation Yrotation Zrotation
												JOINT RightHandRing3
												{
													OFFSET -3.362106 0.000000 0.000000
													CHANNELS 3 Xrotation Yrotation Zrotation
													JOINT RightHandRing4
													{
														OFFSET -2.076401 0.000000 0.000000
														CHANNELS 3 Xrotation Yrotation Zrotation
														End Site
														{
															OFFSET 0.000000 0.000000 0.000000
														}
													}
												}
											}
										}
									}
								}
							}
						}
					}
				}
			}
		}
	}
	JOINT LeftUpLeg
	{
		OFFSET 10.205400 -3.823500 0.155100
		CHANNELS 3 Xrotation Yrotation Zrotation
		JOINT LeftLeg
		{
			OFFSET 0.708757 -12.982077 0.567790
			CHANNELS 3 Xrotation Yrotation Zrotation
			JOINT LeftFoot
			{
				OFFSET -0.708756 -10.717838 -2.184338
				CHANNELS 3 Xrotation Yrotation Zrotation
				JOINT LeftToeBase
				{
					OFFSET 0.108149 -7.191104 7.560241
					CHANNELS 3 Xrotation Yrotation Zrotation
					JOINT LeftToe_End
					{
						OFFSET 0.070230 0.081724 4.490308
						CHANNELS 3 Xrotation Yrotation Zrotation
						End Site
						{
							OFFSET 0.000000 0.000000 0.000000
						}
					}
				}
			}
		}
	}
	JOINT RightUpLeg
	{
		OFFSET -10.205400 -3.823500 0.005500
		CHANNELS 3 Xrotation Yrotation Zrotation
		JOINT RightLeg
		{
			OFFSET -0.708756 -12.982134 0.610632
			CHANNELS 3 Xrotation Yrotation Zrotation
			JOINT RightFoot
			{
				OFFSET 0.708754 -10.717769 -1.945823
				CHANNELS 3 Xrotation Yrotation Zrotation
				JOINT RightToeBase
				{
					OFFSET -0.108140 -7.191069 7.372968
					CHANNELS 3 Xrotation Yrotation Zrotation
					JOINT RightToe_End
					{
						OFFSET -0.070227 0.081735 4.479403
						CHANNELS 3 Xrotation Yrotation Zrotation
						End Site
						{
							OFFSET 0.000000 0.000000 0.000000
						}
					}
				}
			}
		}
	}
}
MOTION
Frames: 4
Frame Time: 0.016667
0.635070 30.360855 -0.498867 -6.074697 -42.881437 -3.766962 5.853146 4.467297 -1.470693 11.836797 9.036867 -3.086775 0.000000 0.000000 0.000000 11.836808 9.036859 -3.086778 -4.023283 -0.974170 0.382902 -6.479896 20.161236 -0.594153 -0.000001 0.000000 0.000000 1.392491 -0.696043 -7.878304 0.000000 0.000000 0.000000 -14.270875 2.385513 -63.280787 9.855342 -47.499342 5.919359 16.172155 0.901951 18.796315 9.163408 4.814155 -5.498989 -0.335218 0.032303 0.783668 -0.000005 0.000009 0.000008 0.000001 -0.000002 -0.000000 -0.901999 -6.980959 -3.808333 0.033588 0.804079 -16.418730 0.000016 0.000007 0.000004 0.000001 0.000002 -0.000003 1.947923 9.683062 -14.539683 -0.463669 -1.564324 -21.881319 0.000010 0.000001 -0.000002 -0.000003 -0.000001 0.000001 2.605936 14.896801 -31.345193 -0.576896 -2.712551 -32.011403 0.000004 -0.000002 0.000001 -0.000005 0.000000 -0.000002 1.409771 9.464728 9.801439 0.000000 0.000000 0.000000 1.234149 -24.280870 60.535529 -6.660157 41.888994 8.039894 6.224110 12.306686 11.672654 -8.895699 -4.903138 -0.383779 7.905234 -19.193018 -2.856815 0.000006 0.000009 -0.000005 -0.000002 -0.000000 0.000001 -1.085602 -1.215454 4.525551 0.141675 -1.114004 16.942832 -0.000006 -0.000004 -0.000000 -0.000001 0.000001 0.000001 -0.663701 -2.903880 12.731729 -0.661475 1.814911 30.579037 0.000004 0.000000 0.000006 0.000000 0.000001 0.000002 2.423541 -7.404541 21.763331 -0.989841 3.764224 37.431209 0.000007 -0.000003 -0.000001 0.000001 0.000001 -0.000003 -38.922260 1.090289 18.107282 41.177322 -17.081719 -0.676193 0.038819 2.549621 -12.588937 -2.319115 -3.216963 0.802950 0.000000 -0.000006 -0.000000 7.888802 -14.575275 -20.694573 34.940396 -4.463841 0.506907 -32.442757 -10.395276 23.856444 -1.784888 -0.356705 0.333199 0.000000 0.000003 -0.000000 
0.603009 30.323841 -0.642122 -4.760424 -41.593356 -3.381965 5.901083 4.382882 -1.446885 11.918893 8.877101 -2.961021 0.000000 0.000000 0.000000 11.918891 8.877116 -2.961026 -4.393512 -1.244332 0.135178 -6.869571 19.864926 -0.425489 0.000000 0.000000 0.000000 1.570208 -1.339779 -7.270828 0.000000 0.000000 0.000000 -11.927853 2.709226 -62.623853 11.392400 -50.094909 6.156102 15.214477 1.370639 16.884535 9.193350 5.062689 -5.652777 -0.335218 0.032308 0.783666 -0.000004 0.000007 0.000008 -0.000001 0.000003 -0.000003 -0.796945 -6.938165 -3.289533 0.025940 0.778742 -16.636987 0.000016 0.000008 0.000005 -0.000002 -0.000001 0.000002 1.901926 9.732990 -14.095529 -0.466279 -1.570588 -21.943789 0.000005 0.000002 -0.000001 0.000002 -0.000002 0.000002 2.724057 14.868104 -31.650414 -0.590226 -2.733304 -32.416488 0.000002 -0.000001 0.000004 0.000002 -0.000001 -0.000001 1.547686 9.347142 9.092332 0.000000 0.000000 0.000000 0.556984 -22.906438 60.241340 -3.542690 42.903895 5.840097 7.677665 11.184459 10.633514 -8.650348 -5.353450 -1.233079 7.621897 -18.559355 -2.849214 0.000004 0.000009 -0.000005 0.000002 0.000001 0.000003 -1.069555 -1.687645 5.364268 0.057423 -0.857536 19.622046 -0.000004 0.000003 0.000001 0.000001 -0.000000 -0.000001 -0.869362 -2.826903 14.623777 -0.785360 2.015684 33.206075 0.000003 -0.000001 0.000011 -0.000000 -0.000000 -0.000001 2.549541 -6.904366 24.300650 -1.124985 3.935002 39.943964 0.000007 -0.000003 0.000004 0.000000 -0.000001 0.000002 -41.456602 1.473246 18.458325 41.994848 -15.478643 0.526200 0.994422 0.849377 -12.537545 -2.261806 -3.137202 0.783539 0.000000 -0.000001 0.000000 7.544961 -14.668989 -19.836147 34.741532 -4.287606 0.638486 -32.525627 -10.250897 23.746526 -1.477658 -0.504030 0.325136 0.000000 -0.000001 -0.000000 
0.578007 30.274208 -0.790848 -3.368163 -40.304335 -3.132030 5.951787 4.282972 -1.400982 12.004169 8.695480 -2.784137 0.000000 0.000000 0.000000 12.004168 8.695492 -2.784137 -4.402253 -1.432521 -0.308002 -7.743042 19.546101 -0.146671 0.000000 -0.000000 -0.000000 1.744170 -1.717839 -6.596031 0.000000 0.000000 0.000000 -9.656333 2.899140 -62.029299 12.853460 -52.487043 6.201669 14.224890 1.951088 15.624066 9.323773 5.688846 -5.949663 -0.335222 0.032320 0.783676 -0.000005 0.000010 0.000005 -0.000003 -0.000002 -0.000006 -0.782988 -6.833236 -3.456140 0.013100 0.736813 -16.998784 0.000011 0.000004 0.000003 -0.000002 0.000001 -0.000001 1.951592 9.750306 -14.576706 -0.472436 -1.585734 -22.093625 0.000010 0.000002 -0.000002 -0.000001 -0.000001 0.000000 3.028759 14.536837 -33.148438 -0.631069 -2.795165 -33.635717 0.000006 -0.000002 0.000002 -0.000003 0.000001 0.000002 1.665590 8.672819 8.386867 0.000000 0.000000 0.000000 -0.517099 -21.343885 59.835073 -0.867242 43.424044 3.841144 9.539179 9.854839 10.594301 -8.424792 -5.710908 -1.809461 7.405772 -18.074643 -2.841173 0.000004 0.000006 -0.000005 -0.000002 -0.000003 0.000003 -1.037047 -2.082853 6.381578 -0.021286 -0.648466 21.839561 -0.000005 0.000001 0.000001 -0.000000 -0.000002 -0.000001 -1.065013 -2.741162 16.363916 -0.904096 2.190628 35.561127 0.000005 0.000000 0.000009 -0.000001 0.000000 -0.000000 2.642178 -6.488002 26.411339 -1.248717 4.078762 42.132903 0.000007 -0.000004 -0.000001 0.000001 0.000000 0.000002 -44.128011 1.408512 19.167657 42.749802 -13.448124 1.312825 1.970889 -1.010249 -12.542696 -2.203020 -3.055404 0.763574 -0.000000 0.000000 0.000000 6.691229 -15.512350 -18.614371 34.718456 -3.589400 -0.377705 -32.460167 -10.197233 23.987454 -1.456789 -0.644438 0.637651 0.000000 -0.000001 -0.000000 
0.552963 30.205139 -0.946980 -1.925807 -39.015024 -2.950903 6.006309 4.171956 -1.357501 12.097063 8.496687 -2.607072 0.000000 0.000000 0.000000 12.097060 8.496696 -2.607071 -4.402070 -1.602827 -0.704805 -8.692102 19.262913 0.109188 0.000001 0.000000 0.000000 1.920544 -2.204495 -5.946531 0.000000 0.000000 0.000000 -7.362920 3.228197 -61.378238 14.333900 -54.674046 6.292073 13.459752 1.934171 13.988620 9.552670 6.521003 -6.281342 -0.335191 0.032300 0.783659 -0.000003 0.000007 0.000008 -0.000004 0.000000 -0.000006 -0.845297 -6.711939 -4.125697 -0.007811 0.670581 -17.571684 0.000009 0.000008 0.000004 0.000002 -0.000001 0.000000 2.022862 9.683097 -15.641248 -0.484477 -1.614724 -22.381758 0.000009 0.000002 -0.000002 0.000002 -0.000000 0.000000 3.325887 14.067999 -34.924519 -0.685069 -2.872677 -35.188817 0.000002 0.000000 0.000001 -0.000004 0.000002 0.000001 1.789075 8.381577 7.651979 0.000000 0.000000 0.000000 -1.251849 -20.026726 59.610619 1.393138 43.948545 1.818013 11.192225 8.642884 11.211505 -7.961400 -5.906363 -2.217060 7.208768 -17.631850 -2.832171 -0.000000 0.000008 -0.000003 0.000001 0.000003 -0.000002 -0.983913 -2.462977 7.369492 -0.096619 -0.468448 23.776566 -0.000005 0.000001 0.000002 0.000000 -0.000000 -0.000001 -1.250094 -2.657354 17.910313 -1.020493 2.348279 37.744254 0.000004 -0.000001 0.000005 0.000000 0.000000 -0.000002 2.681798 -6.018250 28.379887 -1.362735 4.201931 44.070570 0.000007 -0.000004 -0.000000 -0.000000 -0.000000 0.000001 -47.012978 1.368676 20.132483 43.525046 -11.184786 1.970193 2.880030 -3.140128 -12.463058 -2.142980 -2.971890 0.743129 0.000000 0.000002 0.000000 5.613303 -16.459342 -17.266957 34.992155 -2.769435 -1.713298 -32.467994 -10.192331 24.351428 -1.488080 -0.716572 0.934823 0.000000 0.000003 0.000000 
